<svg width="1000" height="1000" viewBox="0 0 1000 1000" fill="none" xmlns="http://www.w3.org/2000/svg">
<path d="M610 190C616.6 190 623.2 190 630 190C630 196.6 630 203.2 630 210C643.2 210 656.4 210 670 210C670 216.6 670 223.2 670 230C676.6 230 683.2 230 690 230C690 236.6 690 243.2 690 250C703.2 250 716.4 250 730 250C730 230.2 730 210.4 730 190C743.2 190 756.4 190 770 190C770 196.6 770 203.2 770 210C763.4 210 756.8 210 750 210C750 223.2 750 236.4 750 250C756.6 250 763.2 250 770 250C770 243.4 770 236.8 770 230C783.2 230 796.4 230 810 230C810 236.6 810 243.2 810 250C823.2 250 836.4 250 850 250C850 236.8 850 223.6 850 210C856.6 210 863.2 210 870 210C870 223.2 870 236.4 870 250C883.2 250 896.4 250 910 250C910 243.4 910 236.8 910 230C916.6 230 923.2 230 930 230C930 236.6 930 243.2 930 250C936.6 250 943.2 250 950 250C950 263.2 950 276.4 950 290C956.6 290 963.2 290 970 290C970 303.2 970 316.4 970 330C963.4 330 956.8 330 950 330C950 336.6 950 343.2 950 350C923.6 350 897.2 350 870 350C870 356.6 870 363.2 870 370C863.4 370 856.8 370 850 370C850 363.4 850 356.8 850 350C843.4 350 836.8 350 830 350C830 363.2 830 376.4 830 390C843.2 390 856.4 390 870 390C870 396.6 870 403.2 870 410C876.6 410 883.2 410 890 410C890 403.4 890 396.8 890 390C903.2 390 916.4 390 930 390C930 396.6 930 403.2 930 410C923.4 410 916.8 410 910 410C910 416.6 910 423.2 910 430C903.4 430 896.8 430 890 430C890 436.6 890 443.2 890 450C896.6 450 903.2 450 910 450C910 463.2 910 476.4 910 490C916.6 490 923.2 490 930 490C930 496.6 930 503.2 930 510C923.4 510 916.8 510 910 510C910 523.2 910 536.4 910 550C916.6 550 923.2 550 930 550C930 563.2 930 576.4 930 590C936.6 590 943.2 590 950 590C950 596.6 950 603.2 950 610C956.6 610 963.2 610 970 610C970 616.6 970 623.2 970 630C963.4 630 956.8 630 950 630C950 636.6 950 643.2 950 650C936.8 650 923.6 650 910 650C910 643.4 910 636.8 910 630C896.8 630 883.6 630 870 630C870 636.6 870 643.2 870 650C856.8 650 843.6 650 830 650C830 663.2 830 676.4 830 690C816.8 690 803.6 690 790 690C790 670.2 790 650.4 790 630C783.4 630 776.8 630 770 630C770 616.8 770 603.6 770 590C763.4 590 756.8 590 750 590C750 576.8 750 563.6 750 550C756.6 550 763.2 550 770 550C770 543.4 770 536.8 770 530C776.6 530 783.2 530 790 530C790 536.6 790 543.2 790 550C796.6 550 803.2 550 810 550C810 523.6 810 497.2 810 470C803.4 470 796.8 470 790 470C790 463.4 790 456.8 790 450C776.8 450 763.6 450 750 450C750 456.6 750 463.2 750 470C736.8 470 723.6 470 710 470C710 456.8 710 443.6 710 430C716.6 430 723.2 430 730 430C730 416.8 730 403.6 730 390C736.6 390 743.2 390 750 390C750 383.4 750 376.8 750 370C743.4 370 736.8 370 730 370C730 363.4 730 356.8 730 350C749.8 350 769.6 350 790 350C790 343.4 790 336.8 790 330C783.4 330 776.8 330 770 330C770 316.8 770 303.6 770 290C763.4 290 756.8 290 750 290C750 303.2 750 316.4 750 330C743.4 330 736.8 330 730 330C730 323.4 730 316.8 730 310C716.8 310 703.6 310 690 310C690 303.4 690 296.8 690 290C670.2 290 650.4 290 630 290C630 296.6 630 303.2 630 310C623.4 310 616.8 310 610 310C610 316.6 610 323.2 610 330C616.6 330 623.2 330 630 330C630 336.6 630 343.2 630 350C616.8 350 603.6 350 590 350C590 336.8 590 323.6 590 310C583.4 310 576.8 310 570 310C570 316.6 570 323.2 570 330C563.4 330 556.8 330 550 330C550 336.6 550 343.2 550 350C523.6 350 497.2 350 470 350C470 343.4 470 336.8 470 330C483.2 330 496.4 330 510 330C510 310.2 510 290.4 510 270C503.4 270 496.8 270 490 270C490 263.4 490 256.8 490 250C503.2 250 516.4 250 530 250C530 243.4 530 236.8 530 230C536.6 230 543.2 230 550 230C550 236.6 550 243.2 550 250C556.6 250 563.2 250 570 250C570 263.2 570 276.4 570 290C583.2 290 596.4 290 610 290C610 283.4 610 276.8 610 270C616.6 270 623.2 270 630 270C630 256.8 630 243.6 630 230C623.4 230 616.8 230 610 230C610 236.6 610 243.2 610 250C603.4 250 596.8 250 590 250C590 236.8 590 223.6 590 210C596.6 210 603.2 210 610 210C610 203.4 610 196.8 610 190ZM650 230C650 236.6 650 243.2 650 250C656.6 250 663.2 250 670 250C670 243.4 670 236.8 670 230C663.4 230 656.8 230 650 230ZM790 250C790 256.6 790 263.2 790 270C796.6 270 803.2 270 810 270C810 263.4 810 256.8 810 250C803.4 250 796.8 250 790 250ZM530 270C530 283.2 530 296.4 530 310C536.6 310 543.2 310 550 310C550 296.8 550 283.6 550 270C543.4 270 536.8 270 530 270ZM710 270C710 276.6 710 283.2 710 290C716.6 290 723.2 290 730 290C730 283.4 730 276.8 730 270C723.4 270 716.8 270 710 270ZM910 270C910 276.6 910 283.2 910 290C903.4 290 896.8 290 890 290C890 303.2 890 316.4 890 330C903.2 330 916.4 330 930 330C930 310.2 930 290.4 930 270C923.4 270 916.8 270 910 270ZM790 290C790 303.2 790 316.4 790 330C803.2 330 816.4 330 830 330C830 316.8 830 303.6 830 290C816.8 290 803.6 290 790 290ZM850 290C850 303.2 850 316.4 850 330C856.6 330 863.2 330 870 330C870 316.8 870 303.6 870 290C863.4 290 856.8 290 850 290ZM750 390C750 403.2 750 416.4 750 430C756.6 430 763.2 430 770 430C770 416.8 770 403.6 770 390C763.4 390 756.8 390 750 390ZM850 410C850 423.2 850 436.4 850 450C856.6 450 863.2 450 870 450C870 436.8 870 423.6 870 410C863.4 410 856.8 410 850 410ZM790 430C790 436.6 790 443.2 790 450C796.6 450 803.2 450 810 450C810 443.4 810 436.8 810 430C803.4 430 796.8 430 790 430ZM830 470C830 489.8 830 509.6 830 530C849.8 530 869.6 530 890 530C890 510.2 890 490.4 890 470C870.2 470 850.4 470 830 470ZM810 550C810 556.6 810 563.2 810 570C816.6 570 823.2 570 830 570C830 563.4 830 556.8 830 550C823.4 550 816.8 550 810 550ZM870 550C870 556.6 870 563.2 870 570C883.2 570 896.4 570 910 570C910 563.4 910 556.8 910 550C896.8 550 883.6 550 870 550ZM770 570C770 576.6 770 583.2 770 590C776.6 590 783.2 590 790 590C790 583.4 790 576.8 790 570C783.4 570 776.8 570 770 570ZM790 590C790 596.6 790 603.2 790 610C796.6 610 803.2 610 810 610C810 603.4 810 596.8 810 590C803.4 590 796.8 590 790 590ZM850 590C850 596.6 850 603.2 850 610C856.6 610 863.2 610 870 610C870 603.4 870 596.8 870 590C863.4 590 856.8 590 850 590ZM890 590C890 596.6 890 603.2 890 610C896.6 610 903.2 610 910 610C910 603.4 910 596.8 910 590C903.4 590 896.8 590 890 590ZM910 610C910 616.6 910 623.2 910 630C916.6 630 923.2 630 930 630C930 623.4 930 616.8 930 610C923.4 610 916.8 610 910 610ZM810 630C810 636.6 810 643.2 810 650C816.6 650 823.2 650 830 650C830 643.4 830 636.8 830 630C823.4 630 816.8 630 810 630Z" fill="#1A1A1A"/>
<path d="M210 10C223.2 10 236.4 10 250 10C250 23.2 250 36.4 250 50C256.6 50 263.2 50 270 50C270 36.8 270 23.6 270 10C276.6 10 283.2 10 290 10C290 29.8 290 49.6 290 70C276.8 70 263.6 70 250 70C250 76.6 250 83.2 250 90C256.6 90 263.2 90 270 90C270 136.2 270 182.4 270 230C276.6 230 283.2 230 290 230C290 236.6 290 243.2 290 250C296.6 250 303.2 250 310 250C310 256.6 310 263.2 310 270C303.4 270 296.8 270 290 270C290 283.2 290 296.4 290 310C283.4 310 276.8 310 270 310C270 316.6 270 323.2 270 330C276.6 330 283.2 330 290 330C290 336.6 290 343.2 290 350C296.6 350 303.2 350 310 350C310 363.2 310 376.4 310 390C316.6 390 323.2 390 330 390C330 403.2 330 416.4 330 430C323.4 430 316.8 430 310 430C310 423.4 310 416.8 310 410C303.4 410 296.8 410 290 410C290 416.6 290 423.2 290 430C283.4 430 276.8 430 270 430C270 436.6 270 443.2 270 450C276.6 450 283.2 450 290 450C290 469.8 290 489.6 290 510C283.4 510 276.8 510 270 510C270 503.4 270 496.8 270 490C263.4 490 256.8 490 250 490C250 496.6 250 503.2 250 510C243.4 510 236.8 510 230 510C230 496.8 230 483.6 230 470C236.6 470 243.2 470 250 470C250 443.6 250 417.2 250 390C263.2 390 276.4 390 290 390C290 383.4 290 376.8 290 370C276.8 370 263.6 370 250 370C250 356.8 250 343.6 250 330C243.4 330 236.8 330 230 330C230 316.8 230 303.6 230 290C223.4 290 216.8 290 210 290C210 283.4 210 276.8 210 270C216.6 270 223.2 270 230 270C230 263.4 230 256.8 230 250C203.6 250 177.2 250 150 250C150 243.4 150 236.8 150 230C143.4 230 136.8 230 130 230C130 236.6 130 243.2 130 250C116.8 250 103.6 250 90 250C90 263.2 90 276.4 90 290C76.8 290 63.6 290 50 290C50 296.6 50 303.2 50 310C36.8 310 23.6 310 10 310C10 290.2 10 270.4 10 250C16.6 250 23.2 250 30 250C30 256.6 30 263.2 30 270C36.6 270 43.2 270 50 270C50 256.8 50 243.6 50 230C56.6 230 63.2 230 70 230C70 223.4 70 216.8 70 210C76.6 210 83.2 210 90 210C90 196.8 90 183.6 90 170C96.6 170 103.2 170 110 170C110 176.6 110 183.2 110 190C116.6 190 123.2 190 130 190C130 196.6 130 203.2 130 210C149.8 210 169.6 210 190 210C190 203.4 190 196.8 190 190C196.6 190 203.2 190 210 190C210 183.4 210 176.8 210 170C216.6 170 223.2 170 230 170C230 163.4 230 156.8 230 150C236.6 150 243.2 150 250 150C250 136.8 250 123.6 250 110C236.8 110 223.6 110 210 110C210 116.6 210 123.2 210 130C203.4 130 196.8 130 190 130C190 116.8 190 103.6 190 90C196.6 90 203.2 90 210 90C210 76.8 210 63.6 210 50C203.4 50 196.8 50 190 50C190 43.4 190 36.8 190 30C196.6 30 203.2 30 210 30C210 23.4 210 16.8 210 10ZM90 210C90 216.6 90 223.2 90 230C96.6 230 103.2 230 110 230C110 223.4 110 216.8 110 210C103.4 210 96.8 210 90 210ZM210 210C210 216.6 210 223.2 210 230C216.6 230 223.2 230 230 230C230 223.4 230 216.8 230 210C223.4 210 216.8 210 210 210ZM230 230C230 236.6 230 243.2 230 250C236.6 250 243.2 250 250 250C250 243.4 250 236.8 250 230C243.4 230 236.8 230 230 230ZM250 270C250 283.2 250 296.4 250 310C256.6 310 263.2 310 270 310C270 296.8 270 283.6 270 270C263.4 270 256.8 270 250 270Z" fill="#1A1A1A"/>
<path d="M490 710C509.8 710 529.6 710 550 710C550 716.6 550 723.2 550 730C543.4 730 536.8 730 530 730C530 736.6 530 743.2 530 750C523.4 750 516.8 750 510 750C510 756.6 510 763.2 510 770C523.2 770 536.4 770 550 770C550 763.4 550 756.8 550 750C576.4 750 602.8 750 630 750C630 756.6 630 763.2 630 770C636.6 770 643.2 770 650 770C650 783.2 650 796.4 650 810C643.4 810 636.8 810 630 810C630 823.2 630 836.4 630 850C636.6 850 643.2 850 650 850C650 856.6 650 863.2 650 870C643.4 870 636.8 870 630 870C630 876.6 630 883.2 630 890C643.2 890 656.4 890 670 890C670 896.6 670 903.2 670 910C663.4 910 656.8 910 650 910C650 916.6 650 923.2 650 930C643.4 930 636.8 930 630 930C630 936.6 630 943.2 630 950C623.4 950 616.8 950 610 950C610 956.6 610 963.2 610 970C616.6 970 623.2 970 630 970C630 976.6 630 983.2 630 990C616.8 990 603.6 990 590 990C590 983.4 590 976.8 590 970C583.4 970 576.8 970 570 970C570 976.6 570 983.2 570 990C563.4 990 556.8 990 550 990C550 983.4 550 976.8 550 970C543.4 970 536.8 970 530 970C530 963.4 530 956.8 530 950C523.4 950 516.8 950 510 950C510 956.6 510 963.2 510 970C503.4 970 496.8 970 490 970C490 963.4 490 956.8 490 950C470.2 950 450.4 950 430 950C430 943.4 430 936.8 430 930C443.2 930 456.4 930 470 930C470 923.4 470 916.8 470 910C463.4 910 456.8 910 450 910C450 896.8 450 883.6 450 870C443.4 870 436.8 870 430 870C430 856.8 430 843.6 430 830C436.6 830 443.2 830 450 830C450 816.8 450 803.6 450 790C456.6 790 463.2 790 470 790C470 783.4 470 776.8 470 770C476.6 770 483.2 770 490 770C490 763.4 490 756.8 490 750C483.4 750 476.8 750 470 750C470 743.4 470 736.8 470 730C476.6 730 483.2 730 490 730C490 723.4 490 716.8 490 710ZM590 770C590 776.6 590 783.2 590 790C570.2 790 550.4 790 530 790C530 796.6 530 803.2 530 810C543.2 810 556.4 810 570 810C570 823.2 570 836.4 570 850C576.6 850 583.2 850 590 850C590 843.4 590 836.8 590 830C596.6 830 603.2 830 610 830C610 810.2 610 790.4 610 770C603.4 770 596.8 770 590 770ZM470 790C470 796.6 470 803.2 470 810C483.2 810 496.4 810 510 810C510 803.4 510 796.8 510 790C496.8 790 483.6 790 470 790ZM470 830C470 849.8 470 869.6 470 890C489.8 890 509.6 890 530 890C530 870.2 530 850.4 530 830C510.2 830 490.4 830 470 830ZM550 850C550 856.6 550 863.2 550 870C556.6 870 563.2 870 570 870C570 863.4 570 856.8 570 850C563.4 850 556.8 850 550 850ZM570 870C570 876.6 570 883.2 570 890C563.4 890 556.8 890 550 890C550 896.6 550 903.2 550 910C536.8 910 523.6 910 510 910C510 916.6 510 923.2 510 930C523.2 930 536.4 930 550 930C550 936.6 550 943.2 550 950C556.6 950 563.2 950 570 950C570 943.4 570 936.8 570 930C583.2 930 596.4 930 610 930C610 910.2 610 890.4 610 870C596.8 870 583.6 870 570 870Z" fill="#1A1A1A"/>
<path d="M830 790C836.6 790 843.2 790 850 790C850 796.6 850 803.2 850 810C869.8 810 889.6 810 910 810C910 803.4 910 796.8 910 790C923.2 790 936.4 790 950 790C950 796.6 950 803.2 950 810C956.6 810 963.2 810 970 810C970 823.2 970 836.4 970 850C956.8 850 943.6 850 930 850C930 863.2 930 876.4 930 890C936.6 890 943.2 890 950 890C950 896.6 950 903.2 950 910C956.6 910 963.2 910 970 910C970 896.8 970 883.6 970 870C976.6 870 983.2 870 990 870C990 909.6 990 949.2 990 990C983.4 990 976.8 990 970 990C970 976.8 970 963.6 970 950C963.4 950 956.8 950 950 950C950 943.4 950 936.8 950 930C943.4 930 936.8 930 930 930C930 923.4 930 916.8 930 910C923.4 910 916.8 910 910 910C910 916.6 910 923.2 910 930C890.2 930 870.4 930 850 930C850 936.6 850 943.2 850 950C869.8 950 889.6 950 910 950C910 956.6 910 963.2 910 970C896.8 970 883.6 970 870 970C870 976.6 870 983.2 870 990C856.8 990 843.6 990 830 990C830 983.4 830 976.8 830 970C823.4 970 816.8 970 810 970C810 956.8 810 943.6 810 930C816.6 930 823.2 930 830 930C830 923.4 830 916.8 830 910C823.4 910 816.8 910 810 910C810 903.4 810 896.8 810 890C803.4 890 796.8 890 790 890C790 903.2 790 916.4 790 930C783.4 930 776.8 930 770 930C770 936.6 770 943.2 770 950C776.6 950 783.2 950 790 950C790 956.6 790 963.2 790 970C783.4 970 776.8 970 770 970C770 976.6 770 983.2 770 990C750.2 990 730.4 990 710 990C710 983.4 710 976.8 710 970C683.6 970 657.2 970 630 970C630 963.4 630 956.8 630 950C649.8 950 669.6 950 690 950C690 943.4 690 936.8 690 930C683.4 930 676.8 930 670 930C670 923.4 670 916.8 670 910C683.2 910 696.4 910 710 910C710 903.4 710 896.8 710 890C729.8 890 749.6 890 770 890C770 883.4 770 876.8 770 870C783.2 870 796.4 870 810 870C810 850.2 810 830.4 810 810C816.6 810 823.2 810 830 810C830 803.4 830 796.8 830 790ZM930 810C930 816.6 930 823.2 930 830C936.6 830 943.2 830 950 830C950 823.4 950 816.8 950 810C943.4 810 936.8 810 930 810ZM830 830C830 849.8 830 869.6 830 890C849.8 890 869.6 890 890 890C890 870.2 890 850.4 890 830C870.2 830 850.4 830 830 830ZM710 910C710 916.6 710 923.2 710 930C723.2 930 736.4 930 750 930C750 923.4 750 916.8 750 910C736.8 910 723.6 910 710 910ZM710 950C710 956.6 710 963.2 710 970C723.2 970 736.4 970 750 970C750 963.4 750 956.8 750 950C736.8 950 723.6 950 710 950Z" fill="#1A1A1A"/>
<path d="M550 10C563.2 10 576.4 10 590 10C590 23.2 590 36.4 590 50C596.6 50 603.2 50 610 50C610 56.6 610 63.2 610 70C603.4 70 596.8 70 590 70C590 83.2 590 96.4 590 110C583.4 110 576.8 110 570 110C570 103.4 570 96.8 570 90C563.4 90 556.8 90 550 90C550 123 550 156 550 190C536.8 190 523.6 190 510 190C510 196.6 510 203.2 510 210C503.4 210 496.8 210 490 210C490 203.4 490 196.8 490 190C483.4 190 476.8 190 470 190C470 196.6 470 203.2 470 210C456.8 210 443.6 210 430 210C430 229.8 430 249.6 430 270C449.8 270 469.6 270 490 270C490 276.6 490 283.2 490 290C483.4 290 476.8 290 470 290C470 296.6 470 303.2 470 310C463.4 310 456.8 310 450 310C450 303.4 450 296.8 450 290C436.8 290 423.6 290 410 290C410 276.8 410 263.6 410 250C396.8 250 383.6 250 370 250C370 269.8 370 289.6 370 310C363.4 310 356.8 310 350 310C350 303.4 350 296.8 350 290C343.4 290 336.8 290 330 290C330 296.6 330 303.2 330 310C323.4 310 316.8 310 310 310C310 296.8 310 283.6 310 270C316.6 270 323.2 270 330 270C330 263.4 330 256.8 330 250C323.4 250 316.8 250 310 250C310 243.4 310 236.8 310 230C343 230 376 230 410 230C410 216.8 410 203.6 410 190C423.2 190 436.4 190 450 190C450 150.4 450 110.8 450 70C430.2 70 410.4 70 390 70C390 63.4 390 56.8 390 50C403.2 50 416.4 50 430 50C430 43.4 430 36.8 430 30C436.6 30 443.2 30 450 30C450 36.6 450 43.2 450 50C456.6 50 463.2 50 470 50C470 43.4 470 36.8 470 30C476.6 30 483.2 30 490 30C490 43.2 490 56.4 490 70C483.4 70 476.8 70 470 70C470 76.6 470 83.2 470 90C483.2 90 496.4 90 510 90C510 83.4 510 76.8 510 70C516.6 70 523.2 70 530 70C530 63.4 530 56.8 530 50C536.6 50 543.2 50 550 50C550 36.8 550 23.6 550 10ZM550 50C550 56.6 550 63.2 550 70C556.6 70 563.2 70 570 70C570 63.4 570 56.8 570 50C563.4 50 556.8 50 550 50ZM470 110C470 129.8 470 149.6 470 170C489.8 170 509.6 170 530 170C530 150.2 530 130.4 530 110C510.2 110 490.4 110 470 110Z" fill="#1A1A1A"/>
<path d="M110 410C136.4 410 162.8 410 190 410C190 416.6 190 423.2 190 430C170.2 430 150.4 430 130 430C130 436.6 130 443.2 130 450C149.8 450 169.6 450 190 450C190 463.2 190 476.4 190 490C196.6 490 203.2 490 210 490C210 496.6 210 503.2 210 510C216.6 510 223.2 510 230 510C230 523.2 230 536.4 230 550C223.4 550 216.8 550 210 550C210 556.6 210 563.2 210 570C223.2 570 236.4 570 250 570C250 563.4 250 556.8 250 550C256.6 550 263.2 550 270 550C270 556.6 270 563.2 270 570C276.6 570 283.2 570 290 570C290 576.6 290 583.2 290 590C283.4 590 276.8 590 270 590C270 596.6 270 603.2 270 610C276.6 610 283.2 610 290 610C290 616.6 290 623.2 290 630C283.4 630 276.8 630 270 630C270 636.6 270 643.2 270 650C263.4 650 256.8 650 250 650C250 656.6 250 663.2 250 670C243.4 670 236.8 670 230 670C230 650.2 230 630.4 230 610C223.4 610 216.8 610 210 610C210 603.4 210 596.8 210 590C203.4 590 196.8 590 190 590C190 583.4 190 576.8 190 570C183.4 570 176.8 570 170 570C170 563.4 170 556.8 170 550C156.8 550 143.6 550 130 550C130 556.6 130 563.2 130 570C123.4 570 116.8 570 110 570C110 563.4 110 556.8 110 550C103.4 550 96.8 550 90 550C90 556.6 90 563.2 90 570C83.4 570 76.8 570 70 570C70 556.8 70 543.6 70 530C76.6 530 83.2 530 90 530C90 516.8 90 503.6 90 490C76.8 490 63.6 490 50 490C50 483.4 50 476.8 50 470C63.2 470 76.4 470 90 470C90 463.4 90 456.8 90 450C96.6 450 103.2 450 110 450C110 436.8 110 423.6 110 410ZM110 470C110 489.8 110 509.6 110 530C129.8 530 149.6 530 170 530C170 510.2 170 490.4 170 470C150.2 470 130.4 470 110 470ZM230 590C230 596.6 230 603.2 230 610C236.6 610 243.2 610 250 610C250 603.4 250 596.8 250 590C243.4 590 236.8 590 230 590Z" fill="#1A1A1A"/>
<path d="M690 690C709.8 690 729.6 690 750 690C750 703.2 750 716.4 750 730C756.6 730 763.2 730 770 730C770 723.4 770 716.8 770 710C789.8 710 809.6 710 830 710C830 703.4 830 696.8 830 690C836.6 690 843.2 690 850 690C850 696.6 850 703.2 850 710C856.6 710 863.2 710 870 710C870 703.4 870 696.8 870 690C876.6 690 883.2 690 890 690C890 696.6 890 703.2 890 710C896.6 710 903.2 710 910 710C910 716.6 910 723.2 910 730C903.4 730 896.8 730 890 730C890 743.2 890 756.4 890 770C870.2 770 850.4 770 830 770C830 776.6 830 783.2 830 790C823.4 790 816.8 790 810 790C810 776.8 810 763.6 810 750C816.6 750 823.2 750 830 750C830 743.4 830 736.8 830 730C816.8 730 803.6 730 790 730C790 749.8 790 769.6 790 790C776.8 790 763.6 790 750 790C750 803.2 750 816.4 750 830C743.4 830 736.8 830 730 830C730 823.4 730 816.8 730 810C723.4 810 716.8 810 710 810C710 803.4 710 796.8 710 790C716.6 790 723.2 790 730 790C730 783.4 730 776.8 730 770C716.8 770 703.6 770 690 770C690 756.8 690 743.6 690 730C696.6 730 703.2 730 710 730C710 723.4 710 716.8 710 710C703.4 710 696.8 710 690 710C690 703.4 690 696.8 690 690Z" fill="#1A1A1A"/>
<path d="M610 10C629.8 10 649.6 10 670 10C670 16.6 670 23.2 670 30C683.2 30 696.4 30 710 30C710 23.4 710 16.8 710 10C729.8 10 749.6 10 770 10C770 16.6 770 23.2 770 30C756.8 30 743.6 30 730 30C730 36.6 730 43.2 730 50C743.2 50 756.4 50 770 50C770 56.6 770 63.2 770 70C763.4 70 756.8 70 750 70C750 76.6 750 83.2 750 90C756.6 90 763.2 90 770 90C770 96.6 770 103.2 770 110C776.6 110 783.2 110 790 110C790 123.2 790 136.4 790 150C783.4 150 776.8 150 770 150C770 143.4 770 136.8 770 130C763.4 130 756.8 130 750 130C750 136.6 750 143.2 750 150C743.4 150 736.8 150 730 150C730 136.8 730 123.6 730 110C723.4 110 716.8 110 710 110C710 123.2 710 136.4 710 150C703.4 150 696.8 150 690 150C690 143.4 690 136.8 690 130C683.4 130 676.8 130 670 130C670 136.6 670 143.2 670 150C663.4 150 656.8 150 650 150C650 130.2 650 110.4 650 90C656.6 90 663.2 90 670 90C670 83.4 670 76.8 670 70C656.8 70 643.6 70 630 70C630 56.8 630 43.6 630 30C623.4 30 616.8 30 610 30C610 23.4 610 16.8 610 10ZM650 30C650 36.6 650 43.2 650 50C656.6 50 663.2 50 670 50C670 43.4 670 36.8 670 30C663.4 30 656.8 30 650 30ZM690 70C690 83.2 690 96.4 690 110C696.6 110 703.2 110 710 110C710 96.8 710 83.6 710 70C703.4 70 696.8 70 690 70Z" fill="#1A1A1A"/>
<path d="M250 670C263.2 670 276.4 670 290 670C290 676.6 290 683.2 290 690C283.4 690 276.8 690 270 690C270 709.8 270 729.6 270 750C276.6 750 283.2 750 290 750C290 756.6 290 763.2 290 770C296.6 770 303.2 770 310 770C310 763.4 310 756.8 310 750C316.6 750 323.2 750 330 750C330 783 330 816 330 850C323.4 850 316.8 850 310 850C310 863.2 310 876.4 310 890C303.4 890 296.8 890 290 890C290 870.2 290 850.4 290 830C296.6 830 303.2 830 310 830C310 816.8 310 803.6 310 790C296.8 790 283.6 790 270 790C270 816.4 270 842.8 270 870C263.4 870 256.8 870 250 870C250 863.4 250 856.8 250 850C243.4 850 236.8 850 230 850C230 843.4 230 836.8 230 830C223.4 830 216.8 830 210 830C210 823.4 210 816.8 210 810C223.2 810 236.4 810 250 810C250 803.4 250 796.8 250 790C243.4 790 236.8 790 230 790C230 783.4 230 776.8 230 770C236.6 770 243.2 770 250 770C250 763.4 250 756.8 250 750C243.4 750 236.8 750 230 750C230 743.4 230 736.8 230 730C223.4 730 216.8 730 210 730C210 743.2 210 756.4 210 770C203.4 770 196.8 770 190 770C190 750.2 190 730.4 190 710C196.6 710 203.2 710 210 710C210 703.4 210 696.8 210 690C223.2 690 236.4 690 250 690C250 683.4 250 676.8 250 670Z" fill="#1A1A1A"/>
<path d="M487 408C495.58 408 504.16 408 513 408C513.33 422.19 513.66 436.38 514 451C523.518 441.611 523.518 441.611 532.367 431.855C535.405 428.404 538.712 425.211 542 422C545.152 423.393 547.262 425.025 549.672 427.477C550.668 428.482 550.668 428.482 551.684 429.508C552.366 430.206 553.047 430.905 553.75 431.625C554.796 432.685 554.796 432.685 555.863 433.766C557.58 435.506 559.292 437.251 561 439C559.128 443.101 556.63 445.366 553.25 448.375C545.963 455.034 538.98 462.02 532 469C545.86 469.33 559.72 469.66 574 470C574 478.58 574 487.16 574 496C560.14 496.33 546.28 496.66 532 497C541.57 506.57 551.14 516.14 561 526C557.1 530.55 553.187 535.038 549.125 539.438C548.627 539.978 548.13 540.519 547.617 541.076C546.413 542.385 545.206 543.693 544 545C538.527 540.439 533.46 535.593 528.441 530.539C527.652 529.748 526.863 528.958 526.05 528.143C523.552 525.64 521.057 523.132 518.562 520.625C516.86 518.918 515.158 517.211 513.455 515.504C509.301 511.339 505.149 507.17 501 503C497.64 504.459 495.448 506.309 492.874 508.899C492.073 509.7 491.273 510.5 490.448 511.325C489.594 512.19 488.74 513.054 487.859 513.945C486.977 514.83 486.095 515.715 485.186 516.627C482.848 518.975 480.514 521.326 478.183 523.68C475.8 526.083 473.411 528.481 471.023 530.879C466.344 535.581 461.67 540.288 457 545C455.897 544.064 454.795 543.126 453.693 542.187C452.772 541.404 452.772 541.404 451.833 540.605C449.12 538.23 446.588 535.696 444.062 533.125C443.569 532.627 443.076 532.13 442.568 531.617C441.377 530.414 440.188 529.207 439 528C440.652 523.709 443.89 520.857 447.102 517.703C447.63 517.176 448.159 516.65 448.704 516.107C450.672 514.149 452.649 512.2 454.625 510.25C459.039 505.878 463.452 501.505 468 497C454.14 496.67 440.28 496.34 426 496C426 487.42 426 478.84 426 470C439.86 469.67 453.72 469.34 468 469C462.772 463.741 462.772 463.741 457.438 458.375C456.353 457.281 455.268 456.187 454.15 455.06C449.263 450.159 444.352 445.399 439 441C440.393 437.848 442.025 435.738 444.477 433.328C445.147 432.664 445.817 432 446.508 431.316C447.206 430.634 447.905 429.953 448.625 429.25C449.331 428.553 450.038 427.855 450.766 427.137C452.506 425.42 454.251 423.708 456 422C460.011 423.847 462.759 426.495 465.812 429.625C466.345 430.164 466.878 430.703 467.427 431.259C471.456 435.367 475.237 439.646 479 444C481.31 446.31 483.62 448.62 486 451C486.33 436.81 486.66 422.62 487 408Z" fill="#191919"/>
<path d="M150 270C156.6 270 163.2 270 170 270C170 276.6 170 283.2 170 290C176.6 290 183.2 290 190 290C190 303.2 190 316.4 190 330C203.2 330 216.4 330 230 330C230 343.2 230 356.4 230 370C236.6 370 243.2 370 250 370C250 376.6 250 383.2 250 390C236.8 390 223.6 390 210 390C210 376.8 210 363.6 210 350C203.4 350 196.8 350 190 350C190 363.2 190 376.4 190 390C183.4 390 176.8 390 170 390C170 383.4 170 376.8 170 370C163.4 370 156.8 370 150 370C150 363.4 150 356.8 150 350C130.2 350 110.4 350 90 350C90 356.6 90 363.2 90 370C76.8 370 63.6 370 50 370C50 350.2 50 330.4 50 310C56.6 310 63.2 310 70 310C70 316.6 70 323.2 70 330C76.6 330 83.2 330 90 330C90 323.4 90 316.8 90 310C103.2 310 116.4 310 130 310C130 303.4 130 296.8 130 290C136.6 290 143.2 290 150 290C150 283.4 150 276.8 150 270ZM130 310C130 316.6 130 323.2 130 330C143.2 330 156.4 330 170 330C170 323.4 170 316.8 170 310C156.8 310 143.6 310 130 310Z" fill="#1A1A1A"/>
<path d="M10 850C56.2 850 102.4 850 150 850C150 896.2 150 942.4 150 990C103.8 990 57.6 990 10 990C10 943.8 10 897.6 10 850ZM30 870C30 903 30 936 30 970C63 970 96 970 130 970C130 937 130 904 130 870C97 870 64 870 30 870Z" fill="#1A1A1A"/>
<path d="M850 10C896.2 10 942.4 10 990 10C990 56.2 990 102.4 990 150C943.8 150 897.6 150 850 150C850 103.8 850 57.6 850 10ZM870 30C870 63 870 96 870 130C903 130 936 130 970 130C970 97 970 64 970 30C937 30 904 30 870 30Z" fill="#1A1A1A"/>
<path d="M10 10C56.2 10 102.4 10 150 10C150 56.2 150 102.4 150 150C103.8 150 57.6 150 10 150C10 103.8 10 57.6 10 10ZM30 30C30 63 30 96 30 130C63 130 96 130 130 130C130 97 130 64 130 30C97 30 64 30 30 30Z" fill="#1A1A1A"/>
<path d="M330 630C336.6 630 343.2 630 350 630C350 636.6 350 643.2 350 650C363.2 650 376.4 650 390 650C390 656.6 390 663.2 390 670C396.6 670 403.2 670 410 670C410 683.2 410 696.4 410 710C423.2 710 436.4 710 450 710C450 703.4 450 696.8 450 690C456.6 690 463.2 690 470 690C470 683.4 470 676.8 470 670C476.6 670 483.2 670 490 670C490 683.2 490 696.4 490 710C483.4 710 476.8 710 470 710C470 716.6 470 723.2 470 730C450.2 730 430.4 730 410 730C410 743.2 410 756.4 410 770C403.4 770 396.8 770 390 770C390 763.4 390 756.8 390 750C376.8 750 363.6 750 350 750C350 736.8 350 723.6 350 710C363.2 710 376.4 710 390 710C390 703.4 390 696.8 390 690C376.8 690 363.6 690 350 690C350 683.4 350 676.8 350 670C343.4 670 336.8 670 330 670C330 656.8 330 643.6 330 630Z" fill="#1A1A1A"/>
<path d="M70 610C76.6 610 83.2 610 90 610C90 623.2 90 636.4 90 650C96.6 650 103.2 650 110 650C110 636.8 110 623.6 110 610C123.2 610 136.4 610 150 610C150 616.6 150 623.2 150 630C143.4 630 136.8 630 130 630C130 636.6 130 643.2 130 650C143.2 650 156.4 650 170 650C170 656.6 170 663.2 170 670C176.6 670 183.2 670 190 670C190 683.2 190 696.4 190 710C183.4 710 176.8 710 170 710C170 703.4 170 696.8 170 690C163.4 690 156.8 690 150 690C150 683.4 150 676.8 150 670C143.4 670 136.8 670 130 670C130 676.6 130 683.2 130 690C123.4 690 116.8 690 110 690C110 683.4 110 676.8 110 670C96.8 670 83.6 670 70 670C70 663.4 70 656.8 70 650C63.4 650 56.8 650 50 650C50 643.4 50 636.8 50 630C56.6 630 63.2 630 70 630C70 623.4 70 616.8 70 610Z" fill="#1A1A1A"/>
<path d="M610 650C636.4 650 662.8 650 690 650C690 656.6 690 663.2 690 670C676.8 670 663.6 670 650 670C650 676.6 650 683.2 650 690C656.6 690 663.2 690 670 690C670 709.8 670 729.6 670 750C663.4 750 656.8 750 650 750C650 743.4 650 736.8 650 730C636.8 730 623.6 730 610 730C610 723.4 610 716.8 610 710C603.4 710 596.8 710 590 710C590 703.4 590 696.8 590 690C596.6 690 603.2 690 610 690C610 676.8 610 663.6 610 650ZM630 690C630 696.6 630 703.2 630 710C636.6 710 643.2 710 650 710C650 703.4 650 696.8 650 690C643.4 690 636.8 690 630 690Z" fill="#1A1A1A"/>
<path d="M70 710C76.6 710 83.2 710 90 710C90 723.2 90 736.4 90 750C83.4 750 76.8 750 70 750C70 756.6 70 763.2 70 770C63.4 770 56.8 770 50 770C50 776.6 50 783.2 50 790C63.2 790 76.4 790 90 790C90 796.6 90 803.2 90 810C83.4 810 76.8 810 70 810C70 816.6 70 823.2 70 830C50.2 830 30.4 830 10 830C10 823.4 10 816.8 10 810C16.6 810 23.2 810 30 810C30 790.2 30 770.4 30 750C36.6 750 43.2 750 50 750C50 743.4 50 736.8 50 730C56.6 730 63.2 730 70 730C70 723.4 70 716.8 70 710Z" fill="#1A1A1A"/>
<path d="M690 530C696.6 530 703.2 530 710 530C710 536.6 710 543.2 710 550C716.6 550 723.2 550 730 550C730 569.8 730 589.6 730 610C723.4 610 716.8 610 710 610C710 623.2 710 636.4 710 650C703.4 650 696.8 650 690 650C690 636.8 690 623.6 690 610C683.4 610 676.8 610 670 610C670 590.2 670 570.4 670 550C676.6 550 683.2 550 690 550C690 543.4 690 536.8 690 530Z" fill="#1A1A1A"/>
<path d="M10 350C16.6 350 23.2 350 30 350C30 356.6 30 363.2 30 370C36.6 370 43.2 370 50 370C50 376.6 50 383.2 50 390C56.6 390 63.2 390 70 390C70 396.6 70 403.2 70 410C76.6 410 83.2 410 90 410C90 423.2 90 436.4 90 450C83.4 450 76.8 450 70 450C70 443.4 70 436.8 70 430C56.8 430 43.6 430 30 430C30 436.6 30 443.2 30 450C23.4 450 16.8 450 10 450C10 436.8 10 423.6 10 410C16.6 410 23.2 410 30 410C30 403.4 30 396.8 30 390C23.4 390 16.8 390 10 390C10 376.8 10 363.6 10 350Z" fill="#1A1A1A"/>
<path d="M330 130C336.6 130 343.2 130 350 130C350 136.6 350 143.2 350 150C356.6 150 363.2 150 370 150C370 143.4 370 136.8 370 130C376.6 130 383.2 130 390 130C390 136.6 390 143.2 390 150C396.6 150 403.2 150 410 150C410 163.2 410 176.4 410 190C403.4 190 396.8 190 390 190C390 183.4 390 176.8 390 170C383.4 170 376.8 170 370 170C370 183.2 370 196.4 370 210C356.8 210 343.6 210 330 210C330 183.6 330 157.2 330 130Z" fill="#1A1A1A"/>
<path d="M50 890C69.8 890 89.6 890 110 890C110 909.8 110 929.6 110 950C90.2 950 70.4 950 50 950C50 930.2 50 910.4 50 890Z" fill="#1A1A1A"/>
<path d="M950 650C956.6 650 963.2 650 970 650C970 676.4 970 702.8 970 730C976.6 730 983.2 730 990 730C990 736.6 990 743.2 990 750C983.4 750 976.8 750 970 750C970 756.6 970 763.2 970 770C963.4 770 956.8 770 950 770C950 750.2 950 730.4 950 710C943.4 710 936.8 710 930 710C930 696.8 930 683.6 930 670C936.6 670 943.2 670 950 670C950 663.4 950 656.8 950 650Z" fill="#1A1A1A"/>
<path d="M890 50C909.8 50 929.6 50 950 50C950 69.8 950 89.6 950 110C930.2 110 910.4 110 890 110C890 90.2 890 70.4 890 50Z" fill="#1A1A1A"/>
<path d="M50 50C69.8 50 89.6 50 110 50C110 69.8 110 89.6 110 110C90.2 110 70.4 110 50 110C50 90.2 50 70.4 50 50Z" fill="#1A1A1A"/>
<path d="M670 790C676.6 790 683.2 790 690 790C690 796.6 690 803.2 690 810C696.6 810 703.2 810 710 810C710 816.6 710 823.2 710 830C716.6 830 723.2 830 730 830C730 836.6 730 843.2 730 850C736.6 850 743.2 850 750 850C750 856.6 750 863.2 750 870C736.8 870 723.6 870 710 870C710 863.4 710 856.8 710 850C696.8 850 683.6 850 670 850C670 830.2 670 810.4 670 790Z" fill="#1A1A1A"/>
<path d="M110 730C123.2 730 136.4 730 150 730C150 736.6 150 743.2 150 750C156.6 750 163.2 750 170 750C170 763.2 170 776.4 170 790C150.2 790 130.4 790 110 790C110 783.4 110 776.8 110 770C103.4 770 96.8 770 90 770C90 763.4 90 756.8 90 750C96.6 750 103.2 750 110 750C110 743.4 110 736.8 110 730ZM130 750C130 756.6 130 763.2 130 770C136.6 770 143.2 770 150 770C150 763.4 150 756.8 150 750C143.4 750 136.8 750 130 750Z" fill="#1A1A1A"/>
<path d="M630 310C649.8 310 669.6 310 690 310C690 316.6 690 323.2 690 330C703.2 330 716.4 330 730 330C730 336.6 730 343.2 730 350C723.4 350 716.8 350 710 350C710 356.6 710 363.2 710 370C703.4 370 696.8 370 690 370C690 363.4 690 356.8 690 350C676.8 350 663.6 350 650 350C650 343.4 650 336.8 650 330C643.4 330 636.8 330 630 330C630 323.4 630 316.8 630 310Z" fill="#1A1A1A"/>
<path d="M30 650C36.6 650 43.2 650 50 650C50 656.6 50 663.2 50 670C56.6 670 63.2 670 70 670C70 683.2 70 696.4 70 710C63.4 710 56.8 710 50 710C50 716.6 50 723.2 50 730C43.4 730 36.8 730 30 730C30 716.8 30 703.6 30 690C23.4 690 16.8 690 10 690C10 683.4 10 676.8 10 670C16.6 670 23.2 670 30 670C30 663.4 30 656.8 30 650Z" fill="#1A1A1A"/>
<path d="M10 490C16.6 490 23.2 490 30 490C30 496.6 30 503.2 30 510C43.2 510 56.4 510 70 510C70 516.6 70 523.2 70 530C56.8 530 43.6 530 30 530C30 536.6 30 543.2 30 550C36.6 550 43.2 550 50 550C50 556.6 50 563.2 50 570C36.8 570 23.6 570 10 570C10 543.6 10 517.2 10 490Z" fill="#1A1A1A"/>
<path d="M930 410C943.2 410 956.4 410 970 410C970 416.6 970 423.2 970 430C976.6 430 983.2 430 990 430C990 443.2 990 456.4 990 470C970.2 470 950.4 470 930 470C930 463.4 930 456.8 930 450C936.6 450 943.2 450 950 450C950 443.4 950 436.8 950 430C943.4 430 936.8 430 930 430C930 423.4 930 416.8 930 410Z" fill="#1A1A1A"/>
<path d="M810 130C816.6 130 823.2 130 830 130C830 143.2 830 156.4 830 170C843.2 170 856.4 170 870 170C870 176.6 870 183.2 870 190C843.6 190 817.2 190 790 190C790 176.8 790 163.6 790 150C796.6 150 803.2 150 810 150C810 143.4 810 136.8 810 130Z" fill="#1A1A1A"/>
<path d="M810 10C816.6 10 823.2 10 830 10C830 29.8 830 49.6 830 70C823.4 70 816.8 70 810 70C810 76.6 810 83.2 810 90C803.4 90 796.8 90 790 90C790 76.8 790 63.6 790 50C783.4 50 776.8 50 770 50C770 43.4 770 36.8 770 30C783.2 30 796.4 30 810 30C810 23.4 810 16.8 810 10Z" fill="#1A1A1A"/>
<path d="M170 830C176.6 830 183.2 830 190 830C190 836.6 190 843.2 190 850C203.2 850 216.4 850 230 850C230 863.2 230 876.4 230 890C216.8 890 203.6 890 190 890C190 883.4 190 876.8 190 870C183.4 870 176.8 870 170 870C170 856.8 170 843.6 170 830Z" fill="#1A1A1A"/>
<path d="M210 930C229.8 930 249.6 930 270 930C270 936.6 270 943.2 270 950C256.8 950 243.6 950 230 950C230 956.6 230 963.2 230 970C216.8 970 203.6 970 190 970C190 963.4 190 956.8 190 950C196.6 950 203.2 950 210 950C210 943.4 210 936.8 210 930Z" fill="#1A1A1A"/>
<path d="M290 130C296.6 130 303.2 130 310 130C310 163 310 196 310 230C303.4 230 296.8 230 290 230C290 197 290 164 290 130Z" fill="#1A1A1A"/>
<path d="M170 130C176.6 130 183.2 130 190 130C190 149.8 190 169.6 190 190C170.2 190 150.4 190 130 190C130 183.4 130 176.8 130 170C143.2 170 156.4 170 170 170C170 156.8 170 143.6 170 130Z" fill="#1A1A1A"/>
<path d="M390 950C396.6 950 403.2 950 410 950C410 963.2 410 976.4 410 990C390.2 990 370.4 990 350 990C350 983.4 350 976.8 350 970C363.2 970 376.4 970 390 970C390 963.4 390 956.8 390 950Z" fill="#1A1A1A"/>
<path d="M410 770C416.6 770 423.2 770 430 770C430 789.8 430 809.6 430 830C423.4 830 416.8 830 410 830C410 823.4 410 816.8 410 810C403.4 810 396.8 810 390 810C390 803.4 390 796.8 390 790C396.6 790 403.2 790 410 790C410 783.4 410 776.8 410 770Z" fill="#1A1A1A"/>
<path d="M950 530C956.6 530 963.2 530 970 530C970 543.2 970 556.4 970 570C976.6 570 983.2 570 990 570C990 576.6 990 583.2 990 590C976.8 590 963.6 590 950 590C950 570.2 950 550.4 950 530Z" fill="#1A1A1A"/>
<path d="M910 170C923.2 170 936.4 170 950 170C950 189.8 950 209.6 950 230C943.4 230 936.8 230 930 230C930 216.8 930 203.6 930 190C923.4 190 916.8 190 910 190C910 183.4 910 176.8 910 170Z" fill="#1A1A1A"/>
<path d="M570 130C576.6 130 583.2 130 590 130C590 143.2 590 156.4 590 170C596.6 170 603.2 170 610 170C610 176.6 610 183.2 610 190C596.8 190 583.6 190 570 190C570 170.2 570 150.4 570 130Z" fill="#1A1A1A"/>
<path d="M350 10C369.8 10 389.6 10 410 10C410 16.6 410 23.2 410 30C396.8 30 383.6 30 370 30C370 36.6 370 43.2 370 50C363.4 50 356.8 50 350 50C350 36.8 350 23.6 350 10Z" fill="#1A1A1A"/>
<path d="M487 531C495.58 531 504.16 531 513 531C513 550.8 513 570.6 513 591C504.42 591 495.84 591 487 591C487 571.2 487 551.4 487 531Z" fill="#191919"/>
<path d="M230 970C249.8 970 269.6 970 290 970C290 976.6 290 983.2 290 990C270.2 990 250.4 990 230 990C230 983.4 230 976.8 230 970Z" fill="#1A1A1A"/>
<path d="M370 910C389.8 910 409.6 910 430 910C430 916.6 430 923.2 430 930C410.2 930 390.4 930 370 930C370 923.4 370 916.8 370 910Z" fill="#1A1A1A"/>
<path d="M310 890C323.2 890 336.4 890 350 890C350 903.2 350 916.4 350 930C343.4 930 336.8 930 330 930C330 923.4 330 916.8 330 910C323.4 910 316.8 910 310 910C310 903.4 310 896.8 310 890Z" fill="#1A1A1A"/>
<path d="M750 630C756.6 630 763.2 630 770 630C770 649.8 770 669.6 770 690C763.4 690 756.8 690 750 690C750 670.2 750 650.4 750 630Z" fill="#1A1A1A"/>
<path d="M750 470C756.6 470 763.2 470 770 470C770 483.2 770 496.4 770 510C756.8 510 743.6 510 730 510C730 503.4 730 496.8 730 490C736.6 490 743.2 490 750 490C750 483.4 750 476.8 750 470Z" fill="#1A1A1A"/>
<path d="M670 390C683.2 390 696.4 390 710 390C710 403.2 710 416.4 710 430C703.4 430 696.8 430 690 430C690 423.4 690 416.8 690 410C683.4 410 676.8 410 670 410C670 403.4 670 396.8 670 390Z" fill="#1A1A1A"/>
<path d="M390 310C403.2 310 416.4 310 430 310C430 323.2 430 336.4 430 350C423.4 350 416.8 350 410 350C410 343.4 410 336.8 410 330C403.4 330 396.8 330 390 330C390 323.4 390 316.8 390 310Z" fill="#1A1A1A"/>
<path d="M870 190C883.2 190 896.4 190 910 190C910 203.2 910 216.4 910 230C903.4 230 896.8 230 890 230C890 223.4 890 216.8 890 210C883.4 210 876.8 210 870 210C870 203.4 870 196.8 870 190Z" fill="#1A1A1A"/>
<path d="M10 190C16.6 190 23.2 190 30 190C30 196.6 30 203.2 30 210C36.6 210 43.2 210 50 210C50 216.6 50 223.2 50 230C36.8 230 23.6 230 10 230C10 216.8 10 203.6 10 190Z" fill="#1A1A1A"/>
<path d="M310 30C316.6 30 323.2 30 330 30C330 36.6 330 43.2 330 50C336.6 50 343.2 50 350 50C350 56.6 350 63.2 350 70C336.8 70 323.6 70 310 70C310 56.8 310 43.6 310 30Z" fill="#1A1A1A"/>
<path d="M670 870C683.2 870 696.4 870 710 870C710 876.6 710 883.2 710 890C696.8 890 683.6 890 670 890C670 883.4 670 876.8 670 870Z" fill="#1A1A1A"/>
<path d="M370 870C383.2 870 396.4 870 410 870C410 876.6 410 883.2 410 890C396.8 890 383.6 890 370 890C370 883.4 370 876.8 370 870Z" fill="#1A1A1A"/>
<path d="M750 830C763.2 830 776.4 830 790 830C790 836.6 790 843.2 790 850C776.8 850 763.6 850 750 850C750 843.4 750 836.8 750 830Z" fill="#1A1A1A"/>
<path d="M350 810C356.6 810 363.2 810 370 810C370 823.2 370 836.4 370 850C363.4 850 356.8 850 350 850C350 836.8 350 823.6 350 810Z" fill="#1A1A1A"/>
<path d="M910 730C916.6 730 923.2 730 930 730C930 743.2 930 756.4 930 770C923.4 770 916.8 770 910 770C910 756.8 910 743.6 910 730Z" fill="#1A1A1A"/>
<path d="M310 690C323.2 690 336.4 690 350 690C350 696.6 350 703.2 350 710C336.8 710 323.6 710 310 710C310 703.4 310 696.8 310 690Z" fill="#1A1A1A"/>
<path d="M550 650C563.2 650 576.4 650 590 650C590 656.6 590 663.2 590 670C576.8 670 563.6 670 550 670C550 663.4 550 656.8 550 650Z" fill="#1A1A1A"/>
<path d="M410 650C423.2 650 436.4 650 450 650C450 656.6 450 663.2 450 670C436.8 670 423.6 670 410 670C410 663.4 410 656.8 410 650Z" fill="#1A1A1A"/>
<path d="M290 630C296.6 630 303.2 630 310 630C310 643.2 310 656.4 310 670C303.4 670 296.8 670 290 670C290 656.8 290 643.6 290 630Z" fill="#1A1A1A"/>
<path d="M310 510C316.6 510 323.2 510 330 510C330 523.2 330 536.4 330 550C323.4 550 316.8 550 310 550C310 536.8 310 523.6 310 510Z" fill="#1A1A1A"/>
<path d="M950 490C963.2 490 976.4 490 990 490C990 496.6 990 503.2 990 510C976.8 510 963.6 510 950 510C950 503.4 950 496.8 950 490Z" fill="#1A1A1A"/>
<path d="M330 430C336.6 430 343.2 430 350 430C350 443.2 350 456.4 350 470C343.4 470 336.8 470 330 470C330 456.8 330 443.6 330 430Z" fill="#1A1A1A"/>
<path d="M950 350C963.2 350 976.4 350 990 350C990 356.6 990 363.2 990 370C976.8 370 963.6 370 950 370C950 363.4 950 356.8 950 350Z" fill="#1A1A1A"/>
<path d="M950 230C963.2 230 976.4 230 990 230C990 236.6 990 243.2 990 250C976.8 250 963.6 250 950 250C950 243.4 950 236.8 950 230Z" fill="#1A1A1A"/>
<path d="M630 150C636.6 150 643.2 150 650 150C650 163.2 650 176.4 650 190C643.4 190 636.8 190 630 190C630 176.8 630 163.6 630 150Z" fill="#1A1A1A"/>
<path d="M350 70C363.2 70 376.4 70 390 70C390 76.6 390 83.2 390 90C376.8 90 363.6 90 350 90C350 83.4 350 76.8 350 70Z" fill="#1A1A1A"/>
<path d="M290 70C296.6 70 303.2 70 310 70C310 83.2 310 96.4 310 110C303.4 110 296.8 110 290 110C290 96.8 290 83.6 290 70Z" fill="#1A1A1A"/>
<path d="M170 50C176.6 50 183.2 50 190 50C190 63.2 190 76.4 190 90C183.4 90 176.8 90 170 90C170 76.8 170 63.6 170 50Z" fill="#1A1A1A"/>
<path d="M910 970C916.6 970 923.2 970 930 970C930 976.6 930 983.2 930 990C923.4 990 916.8 990 910 990C910 983.4 910 976.8 910 970Z" fill="#1A1A1A"/>
<path d="M790 970C796.6 970 803.2 970 810 970C810 976.6 810 983.2 810 990C803.4 990 796.8 990 790 990C790 983.4 790 976.8 790 970Z" fill="#1A1A1A"/>
<path d="M510 970C516.6 970 523.2 970 530 970C530 976.6 530 983.2 530 990C523.4 990 516.8 990 510 990C510 983.4 510 976.8 510 970Z" fill="#1A1A1A"/>
<path d="M330 950C336.6 950 343.2 950 350 950C350 956.6 350 963.2 350 970C343.4 970 336.8 970 330 970C330 963.4 330 956.8 330 950Z" fill="#1A1A1A"/>
<path d="M550 910C556.6 910 563.2 910 570 910C570 916.6 570 923.2 570 930C563.4 930 556.8 930 550 930C550 923.4 550 916.8 550 910Z" fill="#1A1A1A"/>
<path d="M230 890C236.6 890 243.2 890 250 890C250 896.6 250 903.2 250 910C243.4 910 236.8 910 230 910C230 903.4 230 896.8 230 890Z" fill="#1A1A1A"/>
<path d="M170 890C176.6 890 183.2 890 190 890C190 896.6 190 903.2 190 910C183.4 910 176.8 910 170 910C170 903.4 170 896.8 170 890Z" fill="#1A1A1A"/>
<path d="M850 850C856.6 850 863.2 850 870 850C870 856.6 870 863.2 870 870C863.4 870 856.8 870 850 870C850 863.4 850 856.8 850 850Z" fill="#1A1A1A"/>
<path d="M490 850C496.6 850 503.2 850 510 850C510 856.6 510 863.2 510 870C503.4 870 496.8 870 490 870C490 863.4 490 856.8 490 850Z" fill="#1A1A1A"/>
<path d="M330 850C336.6 850 343.2 850 350 850C350 856.6 350 863.2 350 870C343.4 870 336.8 870 330 870C330 863.4 330 856.8 330 850Z" fill="#1A1A1A"/>
<path d="M390 830C396.6 830 403.2 830 410 830C410 836.6 410 843.2 410 850C403.4 850 396.8 850 390 850C390 843.4 390 836.8 390 830Z" fill="#1A1A1A"/>
<path d="M130 810C136.6 810 143.2 810 150 810C150 816.6 150 823.2 150 830C143.4 830 136.8 830 130 830C130 823.4 130 816.8 130 810Z" fill="#1A1A1A"/>
<path d="M190 790C196.6 790 203.2 790 210 790C210 796.6 210 803.2 210 810C203.4 810 196.8 810 190 810C190 803.4 190 796.8 190 790Z" fill="#1A1A1A"/>
<path d="M890 770C896.6 770 903.2 770 910 770C910 776.6 910 783.2 910 790C903.4 790 896.8 790 890 790C890 783.4 890 776.8 890 770Z" fill="#1A1A1A"/>
<path d="M350 770C356.6 770 363.2 770 370 770C370 776.6 370 783.2 370 790C363.4 790 356.8 790 350 790C350 783.4 350 776.8 350 770Z" fill="#1A1A1A"/>
<path d="M290 710C296.6 710 303.2 710 310 710C310 716.6 310 723.2 310 730C303.4 730 296.8 730 290 730C290 723.4 290 716.8 290 710Z" fill="#1A1A1A"/>
<path d="M130 690C136.6 690 143.2 690 150 690C150 696.6 150 703.2 150 710C143.4 710 136.8 710 130 710C130 703.4 130 696.8 130 690Z" fill="#1A1A1A"/>
<path d="M890 670C896.6 670 903.2 670 910 670C910 676.6 910 683.2 910 690C903.4 690 896.8 690 890 690C890 683.4 890 676.8 890 670Z" fill="#1A1A1A"/>
<path d="M530 670C536.6 670 543.2 670 550 670C550 676.6 550 683.2 550 690C543.4 690 536.8 690 530 690C530 683.4 530 676.8 530 670Z" fill="#1A1A1A"/>
<path d="M710 650C716.6 650 723.2 650 730 650C730 656.6 730 663.2 730 670C723.4 670 716.8 670 710 670C710 663.4 710 656.8 710 650Z" fill="#1A1A1A"/>
<path d="M510 650C516.6 650 523.2 650 530 650C530 656.6 530 663.2 530 670C523.4 670 516.8 670 510 670C510 663.4 510 656.8 510 650Z" fill="#1A1A1A"/>
<path d="M170 630C176.6 630 183.2 630 190 630C190 636.6 190 643.2 190 650C183.4 650 176.8 650 170 650C170 643.4 170 636.8 170 630Z" fill="#1A1A1A"/>
<path d="M10 630C16.6 630 23.2 630 30 630C30 636.6 30 643.2 30 650C23.4 650 16.8 650 10 650C10 643.4 10 636.8 10 630Z" fill="#1A1A1A"/>
<path d="M730 610C736.6 610 743.2 610 750 610C750 616.6 750 623.2 750 630C743.4 630 736.8 630 730 630C730 623.4 730 616.8 730 610Z" fill="#1A1A1A"/>
<path d="M190 610C196.6 610 203.2 610 210 610C210 616.6 210 623.2 210 630C203.4 630 196.8 630 190 630C190 623.4 190 616.8 190 610Z" fill="#1A1A1A"/>
<path d="M30 610C36.6 610 43.2 610 50 610C50 616.6 50 623.2 50 630C43.4 630 36.8 630 30 630C30 623.4 30 616.8 30 610Z" fill="#1A1A1A"/>
<path d="M290 590C296.6 590 303.2 590 310 590C310 596.6 310 603.2 310 610C303.4 610 296.8 610 290 610C290 603.4 290 596.8 290 590Z" fill="#1A1A1A"/>
<path d="M10 590C16.6 590 23.2 590 30 590C30 596.6 30 603.2 30 610C23.4 610 16.8 610 10 610C10 603.4 10 596.8 10 590Z" fill="#1A1A1A"/>
<path d="M130 570C136.6 570 143.2 570 150 570C150 576.6 150 583.2 150 590C143.4 590 136.8 590 130 590C130 583.4 130 576.8 130 570Z" fill="#1A1A1A"/>
<path d="M330 550C336.6 550 343.2 550 350 550C350 556.6 350 563.2 350 570C343.4 570 336.8 570 330 570C330 563.4 330 556.8 330 550Z" fill="#1A1A1A"/>
<path d="M730 530C736.6 530 743.2 530 750 530C750 536.6 750 543.2 750 550C743.4 550 736.8 550 730 550C730 543.4 730 536.8 730 530Z" fill="#1A1A1A"/>
<path d="M650 530C656.6 530 663.2 530 670 530C670 536.6 670 543.2 670 550C663.4 550 656.8 550 650 550C650 543.4 650 536.8 650 530Z" fill="#1A1A1A"/>
<path d="M930 510C936.6 510 943.2 510 950 510C950 516.6 950 523.2 950 530C943.4 530 936.8 530 930 530C930 523.4 930 516.8 930 510Z" fill="#1A1A1A"/>
<path d="M850 490C856.6 490 863.2 490 870 490C870 496.6 870 503.2 870 510C863.4 510 856.8 510 850 510C850 503.4 850 496.8 850 490Z" fill="#1A1A1A"/>
<path d="M690 490C696.6 490 703.2 490 710 490C710 496.6 710 503.2 710 510C703.4 510 696.8 510 690 510C690 503.4 690 496.8 690 490Z" fill="#1A1A1A"/>
<path d="M330 490C336.6 490 343.2 490 350 490C350 496.6 350 503.2 350 510C343.4 510 336.8 510 330 510C330 503.4 330 496.8 330 490Z" fill="#1A1A1A"/>
<path d="M130 490C136.6 490 143.2 490 150 490C150 496.6 150 503.2 150 510C143.4 510 136.8 510 130 510C130 503.4 130 496.8 130 490Z" fill="#1A1A1A"/>
<path d="M650 450C656.6 450 663.2 450 670 450C670 456.6 670 463.2 670 470C663.4 470 656.8 470 650 470C650 463.4 650 456.8 650 450Z" fill="#1A1A1A"/>
<path d="M30 450C36.6 450 43.2 450 50 450C50 456.6 50 463.2 50 470C43.4 470 36.8 470 30 470C30 463.4 30 456.8 30 450Z" fill="#1A1A1A"/>
<path d="M910 430C916.6 430 923.2 430 930 430C930 436.6 930 443.2 930 450C923.4 450 916.8 450 910 450C910 443.4 910 436.8 910 430Z" fill="#1A1A1A"/>
<path d="M670 430C676.6 430 683.2 430 690 430C690 436.6 690 443.2 690 450C683.4 450 676.8 450 670 450C670 443.4 670 436.8 670 430Z" fill="#1A1A1A"/>
<path d="M970 390C976.6 390 983.2 390 990 390C990 396.6 990 403.2 990 410C983.4 410 976.8 410 970 410C970 403.4 970 396.8 970 390Z" fill="#1A1A1A"/>
<path d="M710 370C716.6 370 723.2 370 730 370C730 376.6 730 383.2 730 390C723.4 390 716.8 390 710 390C710 383.4 710 376.8 710 370Z" fill="#1A1A1A"/>
<path d="M330 370C336.6 370 343.2 370 350 370C350 376.6 350 383.2 350 390C343.4 390 336.8 390 330 390C330 383.4 330 376.8 330 370Z" fill="#1A1A1A"/>
<path d="M130 370C136.6 370 143.2 370 150 370C150 376.6 150 383.2 150 390C143.4 390 136.8 390 130 390C130 383.4 130 376.8 130 370Z" fill="#1A1A1A"/>
<path d="M370 330C376.6 330 383.2 330 390 330C390 336.6 390 343.2 390 350C383.4 350 376.8 350 370 350C370 343.4 370 336.8 370 330Z" fill="#1A1A1A"/>
<path d="M310 330C316.6 330 323.2 330 330 330C330 336.6 330 343.2 330 350C323.4 350 316.8 350 310 350C310 343.4 310 336.8 310 330Z" fill="#1A1A1A"/>
<path d="M330 310C336.6 310 343.2 310 350 310C350 316.6 350 323.2 350 330C343.4 330 336.8 330 330 330C330 323.4 330 316.8 330 310Z" fill="#1A1A1A"/>
<path d="M970 270C976.6 270 983.2 270 990 270C990 276.6 990 283.2 990 290C983.4 290 976.8 290 970 290C970 283.4 970 276.8 970 270Z" fill="#1A1A1A"/>
<path d="M110 270C116.6 270 123.2 270 130 270C130 276.6 130 283.2 130 290C123.4 290 116.8 290 110 290C110 283.4 110 276.8 110 270Z" fill="#1A1A1A"/>
<path d="M130 250C136.6 250 143.2 250 150 250C150 256.6 150 263.2 150 270C143.4 270 136.8 270 130 270C130 263.4 130 256.8 130 250Z" fill="#1A1A1A"/>
<path d="M470 230C476.6 230 483.2 230 490 230C490 236.6 490 243.2 490 250C483.4 250 476.8 250 470 250C470 243.4 470 236.8 470 230Z" fill="#1A1A1A"/>
<path d="M810 210C816.6 210 823.2 210 830 210C830 216.6 830 223.2 830 230C823.4 230 816.8 230 810 230C810 223.4 810 216.8 810 210Z" fill="#1A1A1A"/>
<path d="M510 210C516.6 210 523.2 210 530 210C530 216.6 530 223.2 530 230C523.4 230 516.8 230 510 230C510 223.4 510 216.8 510 210Z" fill="#1A1A1A"/>
<path d="M670 170C676.6 170 683.2 170 690 170C690 176.6 690 183.2 690 190C683.4 190 676.8 190 670 190C670 183.4 670 176.8 670 170Z" fill="#1A1A1A"/>
<path d="M750 150C756.6 150 763.2 150 770 150C770 156.6 770 163.2 770 170C763.4 170 756.8 170 750 170C750 163.4 750 156.8 750 150Z" fill="#1A1A1A"/>
<path d="M710 150C716.6 150 723.2 150 730 150C730 156.6 730 163.2 730 170C723.4 170 716.8 170 710 170C710 163.4 710 156.8 710 150Z" fill="#1A1A1A"/>
<path d="M610 130C616.6 130 623.2 130 630 130C630 136.6 630 143.2 630 150C623.4 150 616.8 150 610 150C610 143.4 610 136.8 610 130Z" fill="#1A1A1A"/>
<path d="M490 130C496.6 130 503.2 130 510 130C510 136.6 510 143.2 510 150C503.4 150 496.8 150 490 150C490 143.4 490 136.8 490 130Z" fill="#1A1A1A"/>
<path d="M410 130C416.6 130 423.2 130 430 130C430 136.6 430 143.2 430 150C423.4 150 416.8 150 410 150C410 143.4 410 136.8 410 130Z" fill="#1A1A1A"/>
<path d="M210 130C216.6 130 223.2 130 230 130C230 136.6 230 143.2 230 150C223.4 150 216.8 150 210 150C210 143.4 210 136.8 210 130Z" fill="#1A1A1A"/>
<path d="M390 110C396.6 110 403.2 110 410 110C410 116.6 410 123.2 410 130C403.4 130 396.8 130 390 130C390 123.4 390 116.8 390 110Z" fill="#1A1A1A"/>
<path d="M310 110C316.6 110 323.2 110 330 110C330 116.6 330 123.2 330 130C323.4 130 316.8 130 310 130C310 123.4 310 116.8 310 110Z" fill="#1A1A1A"/>
<path d="M330 90C336.6 90 343.2 90 350 90C350 96.6 350 103.2 350 110C343.4 110 336.8 110 330 110C330 103.4 330 96.8 330 90Z" fill="#1A1A1A"/>
<path d="M490 10C496.6 10 503.2 10 510 10C510 16.6 510 23.2 510 30C503.4 30 496.8 30 490 30C490 23.4 490 16.8 490 10Z" fill="#1A1A1A"/>
<path d="M450 10C456.6 10 463.2 10 470 10C470 16.6 470 23.2 470 30C463.4 30 456.8 30 450 30C450 23.4 450 16.8 450 10Z" fill="#1A1A1A"/>
</svg>
