<svg width="17" height="20" viewBox="0 0 17 20" fill="none" xmlns="http://www.w3.org/2000/svg">
<path d="M6.38307 0.582333C3.79113 1.01666 2.1519 2.08146 1.29726 3.93084C0.989033 4.57532 0.932991 4.9396 0.918981 5.85028C0.918981 6.84502 0.975023 7.0832 1.38133 7.90982C2.278 9.74519 4.14139 10.796 8.23246 11.7907C9.89971 12.197 10.7403 12.6033 11.0766 13.1357C11.4969 13.8082 11.4409 14.4948 10.9365 15.0832C10.3901 15.6997 9.74559 15.9098 8.65277 15.8398C7.06959 15.7277 6.25698 15.0692 5.80864 13.5L5.58448 12.7575L4.50567 12.8415C3.91723 12.8835 2.72633 12.9676 1.85768 13.0096C0.989033 13.0657 0.260488 13.1497 0.232467 13.1918C0.120383 13.4019 0.596739 15.1673 0.989033 15.9518C1.8857 17.7872 3.39884 18.88 5.65453 19.3004C7.0836 19.5665 10.278 19.5665 11.567 19.3004C13.7946 18.838 15.5459 17.507 16.4426 15.6296C16.8489 14.761 16.8909 14.5648 16.8909 13.2758C16.8909 12.0569 16.8349 11.7767 16.5267 11.1042C15.574 9.07269 14.1309 8.21805 9.71757 7.09721C8.38657 6.76096 7.09761 6.38268 6.87344 6.27059C5.99078 5.82226 6.00479 4.86954 6.87344 4.26709C7.50391 3.84678 8.77887 3.83277 9.63351 4.25308C10.1379 4.49126 10.306 4.68741 10.6703 5.44397C10.9925 6.13049 11.1607 6.34064 11.3288 6.2846C11.4549 6.25658 12.5477 6.18653 13.7386 6.13049C14.9295 6.08846 16.0083 6.0184 16.1344 5.97637C16.6808 5.82226 15.7281 3.28636 14.7333 2.29161C14.0748 1.63312 13.1501 1.12874 11.9733 0.806499C11.0346 0.5403 7.50391 0.400196 6.38307 0.582333Z" fill="white"/>
</svg>
