<svg width="17" height="20" viewBox="0 0 17 20" fill="none" xmlns="http://www.w3.org/2000/svg">
<path d="M0.256836 10V19.5H3.27956H6.30229V15.9735V12.447H8.6485C11.297 12.447 12.3621 12.2598 13.672 11.5545C15.7447 10.4462 16.7955 8.02803 16.3924 5.30758C16.0902 3.24924 15.1977 1.91061 13.6288 1.19091C12.2902 0.557575 11.6568 0.5 5.7985 0.5H0.256836V10ZM9.23865 4.5447C9.94396 4.74621 10.4046 5.20682 10.6349 5.94091C10.7788 6.4447 10.7644 6.63182 10.5629 7.17879C10.1743 8.18636 9.5985 8.47424 7.78487 8.53182L6.30229 8.58939V6.48788V4.38636H7.49699C8.14471 4.38636 8.92199 4.45833 9.23865 4.5447Z" fill="white"/>
</svg>
