<svg width="19" height="20" viewBox="0 0 19 20" fill="none" xmlns="http://www.w3.org/2000/svg">
<path d="M0.800382 9.99278L0.843728 19.5H5.90076C11.3913 19.5 12.3593 19.3989 14.0209 18.6331C15.5814 17.9251 17.2719 15.9167 17.8209 14.1106C18.4278 12.1312 18.4711 8.56236 17.8932 6.35171C17.3441 4.19886 15.7837 2.14715 14.0643 1.32357C12.5616 0.586693 11.7236 0.5 6.0019 0.5H0.771484L0.800382 9.99278ZM10.5099 5.25361C11.4057 5.70152 11.9548 6.53954 12.2004 7.85437C12.4316 9.15475 12.3015 12.5213 11.9981 13.2148C11.6802 13.9228 11.2179 14.4863 10.7122 14.7464C10.2065 15.0065 7.86578 15.2665 7.17225 15.151L6.69544 15.0643V9.93498V4.8057L8.2559 4.8635C9.51293 4.90684 9.93194 4.97909 10.5099 5.25361Z" fill="white"/>
</svg>
