<svg width="19" height="20" viewBox="0 0 19 20" fill="none" xmlns="http://www.w3.org/2000/svg">
<path d="M0.241883 6.77504C0.284474 12.2693 0.327065 13.1779 0.554215 13.9871C0.937532 15.3926 1.5622 16.5141 2.4566 17.4085C3.96148 18.9134 5.33858 19.3535 8.78843 19.4813C11.3581 19.5665 12.8629 19.3677 14.2117 18.743C15.2622 18.2745 16.9091 16.5993 17.4202 15.5203C18.1868 13.9019 18.2294 13.4476 18.2294 6.70406V0.5H15.319H12.4086V6.70406C12.4086 12.4396 12.3803 12.9649 12.1389 13.4902C11.6278 14.5975 10.6908 15.1228 9.25693 15.1228C8.23475 15.1228 7.42553 14.7963 6.84345 14.1858C6.10521 13.3908 6.10521 13.3624 6.04842 6.70406L6.00583 0.5H3.09546H0.170898L0.241883 6.77504Z" fill="white"/>
</svg>
