<svg width="19" height="20" viewBox="0 0 19 20" fill="none" xmlns="http://www.w3.org/2000/svg">
<path d="M0.204713 0.560993C0.147444 0.618263 0.104492 4.8705 0.104492 10.0104V19.3596L0.576963 19.4455C0.820358 19.4885 2.06596 19.5171 3.32589 19.4885L5.61666 19.4455L5.68824 14.3772C5.74551 10.6261 5.80278 9.36614 5.91732 9.50931C6.00322 9.62385 7.54949 11.8717 9.33916 14.5061C11.1431 17.1404 12.6751 19.3453 12.761 19.4026C12.8469 19.4742 14.1068 19.5028 15.5672 19.4742L18.2159 19.4455V9.9961V0.546677H15.4956H12.7753L12.7037 5.70091L12.6321 10.8408L9.1244 5.70091L5.61666 0.546677L2.95364 0.503723C1.49327 0.489407 0.261983 0.518042 0.204713 0.560993Z" fill="white"/>
</svg>
