<svg width="22" height="20" viewBox="0 0 22 20" fill="none" xmlns="http://www.w3.org/2000/svg">
<path d="M6.2639 3.98333C5.54421 5.91212 3.94648 10.1583 2.72299 13.4402C1.48511 16.7076 0.477539 19.4136 0.477539 19.4424C0.477539 19.4712 1.83057 19.5 3.47148 19.5H6.47981L6.65254 18.8811C6.7533 18.55 6.96921 17.8447 7.12754 17.2977L7.41542 16.3333L10.7404 16.3621L14.0654 16.4053L14.5548 17.9598L15.0298 19.5L18.0813 19.4712C20.0101 19.4424 21.1185 19.3705 21.1041 19.2841C21.0753 19.0826 14.1806 0.802273 14.0798 0.64394C14.0222 0.557575 12.6836 0.5 10.7836 0.5H7.57375L6.2639 3.98333ZM11.8488 8.97803L12.8131 12.1591H10.7548H8.69648L8.82603 11.7561C8.89799 11.5402 9.31542 10.1727 9.76163 8.70455C10.7548 5.40833 10.6828 5.62424 10.7836 5.725C10.8268 5.76818 11.3018 7.23636 11.8488 8.97803Z" fill="white"/>
</svg>
